<svg xmlns="http://www.w3.org/2000/svg" width="920" height="460" viewBox="0 0 920 460" role="img"><rect width="100%" height="100%" fill="white"/><text x="460.0" y="28" text-anchor="middle" font-size="20" font-weight="600" fill="#111827">Engine Total Throughput</text><text x="20" y="216.0" text-anchor="middle" font-size="13" fill="#4b5563" transform="rotate(-90 20 216.0)">Total tok/s</text><line x1="72" y1="376.0" x2="896" y2="376.0" stroke="#e5e7eb" stroke-width="1"/><text x="64" y="380.0" text-anchor="end" font-size="12" fill="#6b7280">0.0</text><line x1="72" y1="312.0" x2="896" y2="312.0" stroke="#e5e7eb" stroke-width="1"/><text x="64" y="316.0" text-anchor="end" font-size="12" fill="#6b7280">104.5</text><line x1="72" y1="248.0" x2="896" y2="248.0" stroke="#e5e7eb" stroke-width="1"/><text x="64" y="252.0" text-anchor="end" font-size="12" fill="#6b7280">208.9</text><line x1="72" y1="184.0" x2="896" y2="184.0" stroke="#e5e7eb" stroke-width="1"/><text x="64" y="188.0" text-anchor="end" font-size="12" fill="#6b7280">313.4</text><line x1="72" y1="120.0" x2="896" y2="120.0" stroke="#e5e7eb" stroke-width="1"/><text x="64" y="124.0" text-anchor="end" font-size="12" fill="#6b7280">417.9</text><line x1="72" y1="56.0" x2="896" y2="56.0" stroke="#e5e7eb" stroke-width="1"/><text x="64" y="60.0" text-anchor="end" font-size="12" fill="#6b7280">522.3</text><rect x="153.0" y="97.7" width="44.0" height="278.3" rx="4" fill="#7c3aed"/><text x="175.0" y="89.7" text-anchor="middle" font-size="11" fill="#111827">454.21</text><text x="175.0" y="432" text-anchor="middle" font-size="12" fill="#374151">Baseline</text><rect x="359.0" y="334.1" width="44.0" height="41.9" rx="4" fill="#7c3aed"/><text x="381.0" y="326.1" text-anchor="middle" font-size="11" fill="#111827">68.39</text><text x="381.0" y="432" text-anchor="middle" font-size="12" fill="#374151">Triton Prefill + MLP</text><rect x="565.0" y="97.9" width="44.0" height="278.1" rx="4" fill="#7c3aed"/><text x="587.0" y="89.9" text-anchor="middle" font-size="11" fill="#111827">454.02</text><text x="587.0" y="432" text-anchor="middle" font-size="12" fill="#374151">Triton Decode</text><rect x="771.0" y="346.8" width="44.0" height="29.2" rx="4" fill="#7c3aed"/><text x="793.0" y="338.8" text-anchor="middle" font-size="11" fill="#111827">47.62</text><text x="793.0" y="432" text-anchor="middle" font-size="12" fill="#374151">Full Triton</text><rect x="72" y="404" width="14" height="14" rx="3" fill="#7c3aed"/><text x="94" y="416" font-size="12" fill="#374151">Total tok/s</text></svg>