<svg xmlns="http://www.w3.org/2000/svg" width="920" height="460" viewBox="0 0 920 460" role="img"><rect width="100%" height="100%" fill="white"/><text x="460.0" y="28" text-anchor="middle" font-size="20" font-weight="600" fill="#111827">Prefill Mean Latency</text><text x="20" y="216.0" text-anchor="middle" font-size="13" fill="#4b5563" transform="rotate(-90 20 216.0)">Mean latency (ms)</text><line x1="72" y1="376.0" x2="896" y2="376.0" stroke="#e5e7eb" stroke-width="1"/><text x="64" y="380.0" text-anchor="end" font-size="12" fill="#6b7280">0.0</text><line x1="72" y1="312.0" x2="896" y2="312.0" stroke="#e5e7eb" stroke-width="1"/><text x="64" y="316.0" text-anchor="end" font-size="12" fill="#6b7280">255.2</text><line x1="72" y1="248.0" x2="896" y2="248.0" stroke="#e5e7eb" stroke-width="1"/><text x="64" y="252.0" text-anchor="end" font-size="12" fill="#6b7280">510.4</text><line x1="72" y1="184.0" x2="896" y2="184.0" stroke="#e5e7eb" stroke-width="1"/><text x="64" y="188.0" text-anchor="end" font-size="12" fill="#6b7280">765.6</text><line x1="72" y1="120.0" x2="896" y2="120.0" stroke="#e5e7eb" stroke-width="1"/><text x="64" y="124.0" text-anchor="end" font-size="12" fill="#6b7280">1020.9</text><line x1="72" y1="56.0" x2="896" y2="56.0" stroke="#e5e7eb" stroke-width="1"/><text x="64" y="60.0" text-anchor="end" font-size="12" fill="#6b7280">1276.1</text><rect x="229.0" y="304.4" width="44.0" height="71.6" rx="4" fill="#94a3b8"/><text x="251.0" y="296.4" text-anchor="middle" font-size="11" fill="#111827">285.43</text><rect x="283.0" y="324.0" width="44.0" height="52.0" rx="4" fill="#2563eb"/><text x="305.0" y="316.0" text-anchor="middle" font-size="11" fill="#111827">207.49</text><text x="278.0" y="432" text-anchor="middle" font-size="12" fill="#374151">128 tok</text><rect x="641.0" y="97.7" width="44.0" height="278.3" rx="4" fill="#94a3b8"/><text x="663.0" y="89.7" text-anchor="middle" font-size="11" fill="#111827">1109.62</text><rect x="695.0" y="166.1" width="44.0" height="209.9" rx="4" fill="#2563eb"/><text x="717.0" y="158.1" text-anchor="middle" font-size="11" fill="#111827">837.11</text><text x="690.0" y="432" text-anchor="middle" font-size="12" fill="#374151">512 tok</text><rect x="72" y="404" width="14" height="14" rx="3" fill="#94a3b8"/><text x="94" y="416" font-size="12" fill="#374151">Baseline</text><rect x="184" y="404" width="14" height="14" rx="3" fill="#2563eb"/><text x="206" y="416" font-size="12" fill="#374151">Triton Prefill + MLP</text></svg>