<svg xmlns="http://www.w3.org/2000/svg" width="920" height="460" viewBox="0 0 920 460" role="img"><rect width="100%" height="100%" fill="white"/><text x="460.0" y="28" text-anchor="middle" font-size="20" font-weight="600" fill="#111827">Paged Attention Mean Latency</text><text x="20" y="216.0" text-anchor="middle" font-size="13" fill="#4b5563" transform="rotate(-90 20 216.0)">Mean latency (ms)</text><line x1="72" y1="376.0" x2="896" y2="376.0" stroke="#e5e7eb" stroke-width="1"/><text x="64" y="380.0" text-anchor="end" font-size="12" fill="#6b7280">0.0</text><line x1="72" y1="312.0" x2="896" y2="312.0" stroke="#e5e7eb" stroke-width="1"/><text x="64" y="316.0" text-anchor="end" font-size="12" fill="#6b7280">16.4</text><line x1="72" y1="248.0" x2="896" y2="248.0" stroke="#e5e7eb" stroke-width="1"/><text x="64" y="252.0" text-anchor="end" font-size="12" fill="#6b7280">32.7</text><line x1="72" y1="184.0" x2="896" y2="184.0" stroke="#e5e7eb" stroke-width="1"/><text x="64" y="188.0" text-anchor="end" font-size="12" fill="#6b7280">49.1</text><line x1="72" y1="120.0" x2="896" y2="120.0" stroke="#e5e7eb" stroke-width="1"/><text x="64" y="124.0" text-anchor="end" font-size="12" fill="#6b7280">65.4</text><line x1="72" y1="56.0" x2="896" y2="56.0" stroke="#e5e7eb" stroke-width="1"/><text x="64" y="60.0" text-anchor="end" font-size="12" fill="#6b7280">81.8</text><rect x="126.0" y="300.7" width="44.0" height="75.3" rx="4" fill="#94a3b8"/><text x="148.0" y="292.7" text-anchor="middle" font-size="11" fill="#111827">19.25</text><rect x="180.0" y="373.9" width="44.0" height="2.1" rx="4" fill="#10b981"/><text x="202.0" y="365.9" text-anchor="middle" font-size="11" fill="#111827">0.53</text><text x="175.0" y="432" text-anchor="middle" font-size="12" fill="#374151">b1/s128</text><rect x="332.0" y="97.7" width="44.0" height="278.3" rx="4" fill="#94a3b8"/><text x="354.0" y="89.7" text-anchor="middle" font-size="11" fill="#111827">71.11</text><rect x="386.0" y="373.8" width="44.0" height="2.2" rx="4" fill="#10b981"/><text x="408.0" y="365.8" text-anchor="middle" font-size="11" fill="#111827">0.57</text><text x="381.0" y="432" text-anchor="middle" font-size="12" fill="#374151">b1/s512</text><rect x="538.0" y="309.4" width="44.0" height="66.6" rx="4" fill="#94a3b8"/><text x="560.0" y="301.4" text-anchor="middle" font-size="11" fill="#111827">17.02</text><rect x="592.0" y="374.9" width="44.0" height="1.1" rx="4" fill="#10b981"/><text x="614.0" y="366.9" text-anchor="middle" font-size="11" fill="#111827">0.29</text><text x="587.0" y="432" text-anchor="middle" font-size="12" fill="#374151">b4/s128</text><rect x="744.0" y="103.3" width="44.0" height="272.7" rx="4" fill="#94a3b8"/><text x="766.0" y="95.3" text-anchor="middle" font-size="11" fill="#111827">69.68</text><rect x="798.0" y="372.8" width="44.0" height="3.2" rx="4" fill="#10b981"/><text x="820.0" y="364.8" text-anchor="middle" font-size="11" fill="#111827">0.81</text><text x="793.0" y="432" text-anchor="middle" font-size="12" fill="#374151">b4/s512</text><rect x="72" y="404" width="14" height="14" rx="3" fill="#94a3b8"/><text x="94" y="416" font-size="12" fill="#374151">Baseline</text><rect x="184" y="404" width="14" height="14" rx="3" fill="#10b981"/><text x="206" y="416" font-size="12" fill="#374151">Triton Decode</text></svg>